<?xml version="1.0" encoding="UTF-8"?>
<svg width="736px" height="294px" viewBox="0 0 736 294" version="1.1" xmlns="http://www.w3.org/2000/svg" xmlns:xlink="http://www.w3.org/1999/xlink">
    <!-- Generator: Sketch 47.1 (45422) - http://www.bohemiancoding.com/sketch -->
    <title>3@3x</title>
    <desc>Created with Sketch.</desc>
    <defs>
        <rect id="path-1" x="0" y="0" width="118" height="55"></rect>
        <rect id="path-2" x="0" y="0" width="108" height="55"></rect>
        <rect id="path-3" x="0" y="0" width="118" height="55"></rect>
        <rect id="path-4" x="0" y="0" width="118" height="55"></rect>
        <rect id="path-5" x="0" y="0" width="118" height="55"></rect>
        <rect id="path-6" x="0" y="0" width="108" height="55"></rect>
        <rect id="path-7" x="0" y="0" width="108" height="55"></rect>
        <rect id="path-8" x="375" y="225" width="118" height="56"></rect>
        <rect id="path-9" x="136" y="225" width="108" height="56"></rect>
        <rect id="path-10" x="503" y="225" width="109" height="56"></rect>
        <rect id="path-11" x="621" y="225" width="109" height="56"></rect>
        <rect id="path-12" x="254" y="225" width="109" height="56"></rect>
        <rect id="path-13" x="6" y="225" width="119" height="56"></rect>
        <linearGradient x1="50%" y1="-3.89783073e-15%" x2="50%" y2="99.8449958%" id="linearGradient-14">
            <stop stop-color="#4387FD" offset="0%"></stop>
            <stop stop-color="#4683EA" offset="100%"></stop>
        </linearGradient>
        <linearGradient x1="50%" y1="0.000438854029%" x2="50%" y2="99.8448212%" id="linearGradient-15">
            <stop stop-color="#4387FD" offset="0%"></stop>
            <stop stop-color="#4683EA" offset="100%"></stop>
        </linearGradient>
    </defs>
    <g id="Page-1" stroke="none" stroke-width="1" fill="none" fill-rule="evenodd">
        <g id="3">
            <g id="Group-5-Copy" transform="translate(219.000000, 120.000000) rotate(-180.000000) translate(-219.000000, -120.000000) translate(125.000000, 105.000000)">
                <polyline id="Path-21" stroke="#616161" stroke-linecap="square" points="183.459822 2.5709423 183.459822 29.1273889 4.97072416 29.1273889 4.97072416 1.51806495"></polyline>
                <polygon id="Fill-103-Copy" fill="#616161" transform="translate(4.868629, 2.500000) rotate(-90.000000) translate(-4.868629, -2.500000) " points="3.04038074 -1.5 2.36862877 -0.783509094 5.924239 2.49938866 2.36862877 5.78350909 3.04038074 6.5 7.36862877 2.49938866"></polygon>
                <polygon id="Fill-103-Copy" fill="#616161" transform="translate(183.500000, 2.500000) rotate(-90.000000) translate(-183.500000, -2.500000) " points="181.671752 -1.5 181 -0.783509094 184.55561 2.49938866 181 5.78350909 181.671752 6.5 186 2.49938866"></polygon>
            </g>
            <g id="Group-5-Copy" transform="translate(129.000000, 215.500000) rotate(-180.000000) translate(-129.000000, -215.500000) translate(63.000000, 207.000000)">
                <polyline id="Path-21" stroke="#616161" stroke-linecap="square" points="127.459822 2.5709423 127.459822 16.1273889 4.97072416 16.1273889 4.97072416 1.51806495"></polyline>
                <polygon id="Fill-103-Copy" fill="#616161" transform="translate(4.868629, 2.500000) rotate(-90.000000) translate(-4.868629, -2.500000) " points="3.04038074 -1.5 2.36862877 -0.783509094 5.924239 2.49938866 2.36862877 5.78350909 3.04038074 6.5 7.36862877 2.49938866"></polygon>
                <polygon id="Fill-103-Copy" fill="#616161" transform="translate(127.500000, 2.500000) rotate(-90.000000) translate(-127.500000, -2.500000) " points="125.671752 -1.5 125 -0.783509094 128.55561 2.49938866 125 5.78350909 125.671752 6.5 130 2.49938866"></polygon>
            </g>
            <g id="Group-5-Copy-2" transform="translate(495.000000, 120.000000) rotate(-180.000000) translate(-495.000000, -120.000000) translate(429.000000, 105.000000)">
                <polyline id="Path-21" stroke="#616161" stroke-linecap="square" points="127.459822 2.5709423 127.459822 29.1273889 4.42592384 29.1273889 4.42592384 1.51806495"></polyline>
                <polygon id="Fill-103-Copy" fill="#616161" transform="translate(4.500000, 2.500000) rotate(-90.000000) translate(-4.500000, -2.500000) " points="2.67175197 -1.5 2 -0.783509094 5.55561024 2.49938866 2 5.78350909 2.67175197 6.5 7 2.49938866"></polygon>
                <polygon id="Fill-103-Copy" fill="#616161" transform="translate(127.500000, 2.500000) rotate(-90.000000) translate(-127.500000, -2.500000) " points="125.671752 -1.5 125 -0.783509094 128.55561 2.49938866 125 5.78350909 125.671752 6.5 130 2.49938866"></polygon>
            </g>
            <g id="Group-6" transform="translate(439.000000, 16.000000)">
                <g id="Rectangle-13-Copy">
                    <use fill="#FFFFFF" fill-rule="evenodd" xlink:href="#path-1"></use>
                    <rect stroke="#DFDFDF" stroke-width="1" x="0.5" y="0.5" width="117" height="54"></rect>
                </g>
                <text id="Semi-Structured" font-family="Roboto-Regular, Roboto" font-size="12" font-weight="normal" fill="#212121">
                    <tspan x="17" y="31">Semi-Structured</tspan>
                </text>
            </g>
            <g id="Group-6-Copy-6" transform="translate(622.000000, 16.000000)">
                <g id="Rectangle-13-Copy">
                    <use fill="#FFFFFF" fill-rule="evenodd" xlink:href="#path-2"></use>
                    <rect stroke="#DFDFDF" stroke-width="1" x="0.5" y="0.5" width="107" height="54"></rect>
                </g>
                <text id="Unstructured" font-family="Roboto-Regular, Roboto" font-size="12" font-weight="normal" fill="#212121">
                    <tspan x="20" y="31">Unstructured</tspan>
                </text>
            </g>
            <g id="Group-6-Copy" transform="translate(160.000000, 16.000000)">
                <g id="Rectangle-13-Copy">
                    <use fill="#FFFFFF" fill-rule="evenodd" xlink:href="#path-3"></use>
                    <rect stroke="#DFDFDF" stroke-width="1" x="0.5" y="0.5" width="117" height="54"></rect>
                </g>
                <text id="Structured" font-family="Roboto-Regular, Roboto" font-size="12" font-weight="normal" fill="#212121">
                    <tspan x="30" y="31">Structured</tspan>
                </text>
            </g>
            <g id="Group-6-Copy-2" transform="translate(70.000000, 137.000000)">
                <g id="Rectangle-13-Copy">
                    <use fill="#FFFFFF" fill-rule="evenodd" xlink:href="#path-4"></use>
                    <rect stroke="#DFDFDF" stroke-width="1" x="0.5" y="0.5" width="117" height="54"></rect>
                </g>
                <text id="Transactional" font-family="Roboto-Regular, Roboto" font-size="12" font-weight="normal" fill="#212121">
                    <tspan x="23" y="31">Transactional</tspan>
                </text>
            </g>
            <g id="Group-6-Copy-4" transform="translate(375.000000, 137.000000)">
                <g id="Rectangle-13-Copy">
                    <use fill="#FFFFFF" fill-rule="evenodd" xlink:href="#path-5"></use>
                    <rect stroke="#DFDFDF" stroke-width="1" x="0.5" y="0.5" width="117" height="54"></rect>
                </g>
                <text id="Fully-Indexed" font-family="Roboto-Regular, Roboto" font-size="12" font-weight="normal" fill="#212121">
                    <tspan x="24" y="31">Fully Indexed</tspan>
                </text>
            </g>
            <g id="Group-6-Copy-3" transform="translate(254.000000, 137.000000)">
                <g id="Rectangle-13-Copy">
                    <use fill="#FFFFFF" fill-rule="evenodd" xlink:href="#path-6"></use>
                    <rect stroke="#DFDFDF" stroke-width="1" x="0.5" y="0.5" width="107" height="54"></rect>
                </g>
                <text id="Analytical" font-family="Roboto-Regular, Roboto" font-size="12" font-weight="normal" fill="#212121">
                    <tspan x="29" y="31">Analytical</tspan>
                </text>
            </g>
            <g id="Group-6-Copy-5" transform="translate(503.000000, 137.000000)">
                <g id="Rectangle-13-Copy">
                    <use fill="#FFFFFF" fill-rule="evenodd" xlink:href="#path-7"></use>
                    <rect stroke="#DFDFDF" stroke-width="1" x="0.5" y="0.5" width="107" height="54"></rect>
                </g>
                <text id="Row-Key" font-family="Roboto-Regular, Roboto" font-size="12" font-weight="normal" fill="#212121">
                    <tspan x="30" y="31">Row Key</tspan>
                </text>
            </g>
            <path d="M220,105 L220,71" id="Path-3" stroke="#616161" stroke-linecap="square"></path>
            <path d="M130,208 L130,192" id="Path-3" stroke="#616161" stroke-linecap="square"></path>
            <path d="M497,105 L497,71" id="Path-3-Copy" stroke="#616161" stroke-linecap="square"></path>
            <g id="Rectangle-13">
                <use fill="#FFFFFF" fill-rule="evenodd" xlink:href="#path-8"></use>
                <rect stroke="#DFDFDF" stroke-width="1" x="375.5" y="225.5" width="117" height="55"></rect>
            </g>
            <g id="Rectangle-13-Copy-2">
                <use fill="#FFFFFF" fill-rule="evenodd" xlink:href="#path-9"></use>
                <rect stroke="#DFDFDF" stroke-width="1" x="136.5" y="225.5" width="107" height="55"></rect>
            </g>
            <text id="Cloud-Datastore" font-family="Roboto-Regular, Roboto" font-size="12" font-weight="normal" fill="#212121">
                <tspan x="424" y="250">Cloud</tspan>
                <tspan x="424" y="264">Datastore</tspan>
            </text>
            <text id="Cloud-Spanner" font-family="Roboto-Regular, Roboto" font-size="12" font-weight="normal" fill="#212121">
                <tspan x="185" y="250">Cloud</tspan>
                <tspan x="185" y="264">Spanner</tspan>
            </text>
            <g id="Rectangle-13">
                <use fill="#FFFFFF" fill-rule="evenodd" xlink:href="#path-10"></use>
                <rect stroke="#DFDFDF" stroke-width="1" x="503.5" y="225.5" width="108" height="55"></rect>
            </g>
            <text id="Cloud-Bigtable" font-family="Roboto-Regular, Roboto" font-size="12" font-weight="normal" fill="#212121">
                <tspan x="552" y="250">Cloud</tspan>
                <tspan x="552" y="264">Bigtable</tspan>
            </text>
            <g id="Rectangle-13">
                <use fill="#FFFFFF" fill-rule="evenodd" xlink:href="#path-11"></use>
                <rect stroke="#DFDFDF" stroke-width="1" x="621.5" y="225.5" width="108" height="55"></rect>
            </g>
            <text id="Cloud-Storage" font-family="Roboto-Regular, Roboto" font-size="12" font-weight="normal" fill="#212121">
                <tspan x="670" y="250">Cloud</tspan>
                <tspan x="670" y="264">Storage</tspan>
            </text>
            <g id="Rectangle-13">
                <use fill="#FFFFFF" fill-rule="evenodd" xlink:href="#path-12"></use>
                <rect stroke="#DFDFDF" stroke-width="1" x="254.5" y="225.5" width="108" height="55"></rect>
            </g>
            <text id="BigQuery" font-family="Roboto-Regular, Roboto" font-size="12" font-weight="normal" fill="#212121">
                <tspan x="302" y="256">BigQuery</tspan>
            </text>
            <g id="Rectangle-13">
                <use fill="#FFFFFF" fill-rule="evenodd" xlink:href="#path-13"></use>
                <rect stroke="#DFDFDF" stroke-width="1" x="6.5" y="225.5" width="118" height="55"></rect>
            </g>
            <text id="Cloud-SQL" font-family="Roboto-Regular, Roboto" font-size="12" font-weight="normal" fill="#212121">
                <tspan x="55" y="256">Cloud SQL</tspan>
            </text>
            <g id="Group-5-Copy" transform="translate(676.500000, 147.000000) rotate(-180.000000) translate(-676.500000, -147.000000) translate(672.000000, 70.000000)">
                <path d="M4.42592384,153.421512 L4.42592384,1.51806495" id="Path-21" stroke="#616161" stroke-linecap="square"></path>
                <polygon id="Fill-103-Copy" fill="#616161" transform="translate(4.500000, 2.500000) rotate(-90.000000) translate(-4.500000, -2.500000) " points="2.67175197 -1.5 2 -0.783509094 5.55561024 2.49938866 2 5.78350909 2.67175197 6.5 7 2.49938866"></polygon>
            </g>
            <g id="Group-5-Copy-3" transform="translate(556.500000, 207.500000) rotate(-180.000000) translate(-556.500000, -207.500000) translate(552.000000, 191.000000)">
                <path d="M4.42592384,32.1209744 L4.42592384,1.51806495" id="Path-21" stroke="#616161" stroke-linecap="square"></path>
                <polygon id="Fill-103-Copy" fill="#616161" transform="translate(4.500000, 2.500000) rotate(-90.000000) translate(-4.500000, -2.500000) " points="2.67175197 -1.5 2 -0.783509094 5.55561024 2.49938866 2 5.78350909 2.67175197 6.5 7 2.49938866"></polygon>
            </g>
            <g id="Group-5-Copy-4" transform="translate(434.500000, 207.500000) rotate(-180.000000) translate(-434.500000, -207.500000) translate(430.000000, 191.000000)">
                <path d="M4.42592384,32.1209744 L4.42592384,1.51806495" id="Path-21" stroke="#616161" stroke-linecap="square"></path>
                <polygon id="Fill-103-Copy" fill="#616161" transform="translate(4.500000, 2.500000) rotate(-90.000000) translate(-4.500000, -2.500000) " points="2.67175197 -1.5 2 -0.783509094 5.55561024 2.49938866 2 5.78350909 2.67175197 6.5 7 2.49938866"></polygon>
            </g>
            <g id="Group-5-Copy-5" transform="translate(308.500000, 207.500000) rotate(-180.000000) translate(-308.500000, -207.500000) translate(304.000000, 191.000000)">
                <path d="M4.42592384,32.1209744 L4.42592384,1.51806495" id="Path-21" stroke="#616161" stroke-linecap="square"></path>
                <polygon id="Fill-103-Copy" fill="#616161" transform="translate(4.500000, 2.500000) rotate(-90.000000) translate(-4.500000, -2.500000) " points="2.67175197 -1.5 2 -0.783509094 5.55561024 2.49938866 2 5.78350909 2.67175197 6.5 7 2.49938866"></polygon>
            </g>
            <g id="CloudStorage_128px" transform="translate(635.000000, 241.000000)">
                <g id="BASE" fill="url(#linearGradient-14)">
                    <path d="M6.00847304,22.5843339 L0.530086957,13.0955061 C0.101405217,12.3530087 0.101405217,11.4382122 0.530086957,10.6957148 L6.00847304,1.20690783 C6.43715478,0.464410435 7.22940522,0.00701217391 8.0867687,0.00701217391 L19.0435409,0.00701217391 C19.9009043,0.00701217391 20.6931548,0.464410435 21.1218365,1.20690783 L26.6002226,10.6957148 C27.0289043,11.4382122 27.0289043,12.3530087 26.6002226,13.0955061 L21.1218365,22.584313 C20.6931548,23.3268104 19.9009043,23.7842087 19.0435409,23.7842087 L8.0867687,23.7842087 C7.22940522,23.7842296 6.43717565,23.3268313 6.00847304,22.5843339 L6.00847304,22.5843339 Z" id="Shape"></path>
                </g>
                <g id="shadow" transform="translate(8.973913, 8.973913)" fill="#000000" opacity="0.07">
                    <polygon id="Shape" points="16.0565217 7.0956313 9.07575652 0.114845217 1.52608696 0.808674783 0.0630469565 2.26737391 1.30651826 3.51084522 0.0755478261 5.69726609 9.39076174 15.01248 11.6478261 15.0130226"></polygon>
                </g>
                <g id="art" transform="translate(8.973913, 8.973913)" fill="#FFFFFF">
                    <g id="Group">
                        <path d="M8.91128348,0.05616 L0.263770435,0.0564104348 C0.124528696,0.0564104348 0.0106434783,0.170295652 0.0106434783,0.309537391 L0.010893913,2.09728696 C0.010893913,2.23623652 0.12477913,2.35016348 0.263770435,2.35016348 L8.91105391,2.35016348 C9.05027478,2.35016348 9.16416,2.23625739 9.16416,2.09728696 L9.16416,0.309286957 C9.16413913,0.170295652 9.05048348,0.05616 8.91128348,0.05616 M7.57229217,1.7205287 C7.28702609,1.7205287 7.05568696,1.48804174 7.05516522,1.20302609 C7.05568696,0.916737391 7.28625391,0.686045217 7.57229217,0.686045217 C7.85808,0.686045217 8.08966957,0.916257391 8.08966957,1.20302609 C8.08966957,1.48856348 7.85808,1.7205287 7.57229217,1.7205287" id="Shape"></path>
                        <path d="M8.91128348,3.4927513 L0.263770435,3.49300174 C0.124528696,3.49300174 0.0106434783,3.60701217 0.0106434783,3.74648348 L0.010893913,5.53387826 C0.010893913,5.67282783 0.12477913,5.78700522 0.263770435,5.78700522 L8.91105391,5.78700522 C9.05027478,5.78700522 9.16416,5.67282783 9.16416,5.53387826 L9.16416,3.74608696 C9.16413913,3.60703304 9.05048348,3.4927513 8.91128348,3.4927513 M7.57229217,5.15714087 C7.28702609,5.15714087 7.05568696,4.92477913 7.05516522,4.63963826 C7.05568696,4.35337043 7.28625391,4.12278261 7.57229217,4.12278261 C7.85808,4.12278261 8.08966957,4.35322435 8.08966957,4.63963826 C8.08966957,4.92550957 7.85808,5.15714087 7.57229217,5.15714087" id="Shape"></path>
                    </g>
                </g>
            </g>
            <g id="BigTable_128px" transform="translate(517.000000, 242.000000)">
                <g id="BASE" fill="url(#linearGradient-14)">
                    <path d="M6.02593953,22.3896414 L0.531627907,12.9826138 C0.1017,12.2465172 0.1017,11.3396069 0.531627907,10.6035103 L6.02593953,1.19650345 C6.45586744,0.460406897 7.25042093,0.00695172414 8.11027674,0.00695172414 L19.0989,0.00695172414 C19.9587558,0.00695172414 20.7533093,0.460406897 21.1832372,1.19650345 L26.6775488,10.6035103 C27.1074767,11.3396069 27.1074767,12.2465172 26.6775488,12.9826138 L21.1832372,22.3896207 C20.7533093,23.1257172 19.9587558,23.5791724 19.0989,23.5791724 L8.11027674,23.5791724 C7.25042093,23.5791931 6.45586744,23.1257379 6.02593953,22.3896414 L6.02593953,22.3896414 Z" id="Shape"></path>
                </g>
                <g id="shadow" transform="translate(6.488372, 5.586207)" fill="#000000" opacity="0.07">
                    <polygon id="Shape" points="19.8313326 8.39652414 12.7504047 1.39698621 12.4890698 3.43888966 11.083207 2.04916552 6.18523953 0.066537931 8.92264186 2.77249655 5.60750233 1.22410345 0.0783418605 3.7929931 1.57843256 5.27584138 1.4764186 11.0284552 8.71652093 18.1853172 14.1628186 18.2154828"></polygon>
                </g>
                <g id="art" transform="translate(6.488372, 4.344828)" fill="#FFFFFF">
                    <g id="Group">
                        <g id="Shape">
                            <path d="M11.237086,3.65323448 L11.2412721,7.93106897 C11.2413558,8.02332414 11.1916047,8.1086069 11.110793,8.15472414 L10.4085419,8.55550345 L10.4057791,4.12783448 C10.4056744,3.94361379 10.306193,3.77344138 10.1448209,3.68133103 L6.65116744,1.68744828 C6.10857209,1.37793103 5.7575093,0.818793103 5.7123,0.206337931 L10.9758767,3.20677241 C11.1373535,3.29882069 11.2368977,3.4689931 11.237086,3.65323448 L11.237086,3.65323448 Z"></path>
                            <path d="M12.5015023,9.07845517 L8.75580698,11.2209517 C8.67503721,11.2671517 8.57545116,11.2671931 8.4946186,11.2210759 L7.79236744,10.8202966 L11.6700488,8.60410345 C11.8313791,8.51188966 11.9307349,8.34165517 11.9307349,8.15745517 L11.9307558,4.16971034 C11.9306302,3.55046897 12.2449395,2.97035172 12.7589233,2.62541379 L12.7620419,8.63164138 C12.7621256,8.81586207 12.6628326,8.98617931 12.5015023,9.07845517 L12.5015023,9.07845517 Z"></path>
                            <path d="M8.38069535,12.8734966 L4.63081395,10.7381586 C4.54993953,10.6921034 4.50010465,10.6068828 4.50010465,10.5146276 L4.50010465,9.71304828 L8.38052791,11.9245241 C8.54196279,12.016531 8.7408,12.016469 8.90217209,11.9243586 L12.3958256,9.93049655 C12.9382744,9.62075172 13.6036674,9.59977241 14.1628605,9.86731034 L8.90242326,12.8731034 C8.74105116,12.9653172 8.54219302,12.9654621 8.38069535,12.8734966 L8.38069535,12.8734966 Z"></path>
                            <path d="M2.99547209,11.2433172 L2.99128605,6.96548276 C2.99120233,6.87322759 3.04095349,6.78794483 3.12176512,6.74182759 L3.82401628,6.34104828 L3.82677907,10.7687172 C3.82688372,10.9529379 3.92636512,11.1231103 4.08773721,11.2152207 L7.58136977,13.2091034 C8.12396512,13.5186207 8.47502791,14.0777586 8.52023721,14.6902138 L3.2566814,11.6897586 C3.09520465,11.597731 2.99566047,11.4275586 2.99547209,11.2433172 L2.99547209,11.2433172 Z"></path>
                            <path d="M1.73105581,5.81809655 L5.47675116,3.6756 C5.55752093,3.6294 5.65710698,3.62935862 5.73793953,3.67547586 L6.4401907,4.07625517 L2.5625093,6.29244828 C2.40117907,6.38466207 2.30182326,6.55489655 2.30182326,6.73909655 L2.30180233,10.7268414 C2.30192791,11.3460828 1.9876186,11.9262 1.47363488,12.2711379 L1.47051628,6.26491034 C1.47043256,6.08066897 1.56972558,5.91037241 1.73105581,5.81809655 L1.73105581,5.81809655 Z"></path>
                            <path d="M5.85186279,2.02305517 L9.60174419,4.15837241 C9.6826186,4.20442759 9.73245349,4.28964828 9.73245349,4.38190345 L9.73245349,5.18348276 L5.8520093,2.9720069 C5.69057442,2.88 5.49173721,2.88006207 5.33034419,2.97217241 L1.8366907,4.96603448 C1.29424186,5.27577931 0.628848837,5.29675862 0.069655814,5.02922069 L5.33011395,2.02342759 C5.49148605,1.93123448 5.69036512,1.93108966 5.85186279,2.02305517 L5.85186279,2.02305517 Z"></path>
                        </g>
                        <g transform="translate(4.395349, 4.344828)" id="Shape">
                            <path d="M2.71936047,4.20124138 C2.66992326,4.20124138 2.62021395,4.18851724 2.57588372,4.1631931 L0.102662791,2.75174483 L0.102662791,3.36744828 L2.71936047,4.86088966 L5.33620465,3.36734483 L5.33620465,2.75166207 L2.86283721,4.16321379 C2.81848605,4.18851724 2.76879767,4.20124138 2.71936047,4.20124138 L2.71936047,4.20124138 Z"></path>
                            <path d="M2.86283721,5.43428276 C2.81848605,5.4596069 2.76879767,5.47233103 2.71936047,5.47233103 C2.66992326,5.47233103 2.62021395,5.4596069 2.57588372,5.43428276 L0.102662791,4.02273103 L0.102662791,4.47817241 C0.102662791,4.57591034 0.155406977,4.6662 0.241032558,4.71504828 L2.58107442,6.05054483 C2.66667907,6.0993931 2.77218837,6.0993931 2.85779302,6.05054483 L5.19785581,4.71504828 C5.28346047,4.6662 5.33620465,4.57588966 5.33620465,4.47817241 L5.33620465,4.02264828 L2.86283721,5.43428276 L2.86283721,5.43428276 Z"></path>
                            <path d="M2.71936047,3.58982069 L5.33620465,2.09642069 L5.33620465,1.80715862 C5.33620465,1.70942069 5.28346047,1.61913103 5.19785581,1.57028276 L2.85779302,0.234786207 C2.77218837,0.185917241 2.66667907,0.185917241 2.58107442,0.234786207 L0.241032558,1.57028276 C0.155427907,1.61913103 0.102662791,1.70944138 0.102662791,1.80715862 L0.102662791,2.09648276 L2.71936047,3.58982069 L2.71936047,3.58982069 Z"></path>
                        </g>
                    </g>
                </g>
            </g>
            <g id="Cloud-SQL_128px-Copy" transform="translate(20.000000, 241.000000)">
                <g id="BASE" fill="url(#linearGradient-14)">
                    <path d="M6.02593953,22.3896414 L0.531627907,12.9826138 C0.1017,12.2465172 0.1017,11.3396069 0.531627907,10.6035103 L6.02593953,1.19650345 C6.45586744,0.460406897 7.25042093,0.00695172414 8.11027674,0.00695172414 L19.0989,0.00695172414 C19.9587558,0.00695172414 20.7533093,0.460406897 21.1832372,1.19650345 L26.6775488,10.6035103 C27.1074767,11.3396069 27.1074767,12.2465172 26.6775488,12.9826138 L21.1832372,22.3896207 C20.7533093,23.1257172 19.9587558,23.5791724 19.0989,23.5791724 L8.11027674,23.5791724 C7.25042093,23.5791931 6.45588837,23.1257379 6.02593953,22.3896414 L6.02593953,22.3896414 Z" id="Shape"></path>
                </g>
                <g id="shadow" transform="translate(9.418605, 6.620690)" fill="#000000" opacity="0.07">
                    <polygon id="Shape" points="15.9418465 8.91376552 8.36336512 1.4223931 4.32558837 0.0517034483 0.0435976744 3.24997241 2.72093023 5.89653103 0.0348906977 6.15515172 2.54214419 8.6336069 0.00408139535 8.94798621 8.48547209 17.331869 11.2107558 17.0236759"></polygon>
                </g>
                <g id="art" transform="translate(9.418605, 5.586207)" fill="#FFFFFF">
                    <g id="Group">
                        <path d="M4.18604651,0.0476482759 L6.27906977e-05,2.43664138 L6.27906977e-05,4.2842069 L4.18604651,6.67322069 L8.37203023,4.2842069 L8.37203023,2.43664138 L4.18604651,0.0476482759 L4.18604651,0.0476482759 Z M6.68639302,3.33316552 L6.68463488,3.33215172 L4.18604651,4.75814483 L1.68743721,3.33215172 L1.68567907,3.33316552 L1.68567907,3.33115862 L1.68743721,3.33215172 L4.18604651,1.90617931 L6.68463488,3.33215172 L6.68639302,3.33115862 L6.68639302,3.33316552 L6.68639302,3.33316552 Z" id="Shape"></path>
                        <polygon id="Shape" points="0 5.32802069 0 7.1756069 4.18604651 9.56457931 8.37209302 7.1756069 8.37209302 5.32802069 4.18604651 7.71703448"></polygon>
                        <polygon id="Shape" points="0 8.12954483 0 9.97711034 4.18604651 12.3661034 8.37209302 9.97711034 8.37209302 8.12954483 4.18604651 10.5185586"></polygon>
                    </g>
                </g>
            </g>
            <g id="BigQuery_128px-Copy-2" transform="translate(269.000000, 241.000000)">
                <g id="BASE" transform="translate(0.000000, 0.600000)" fill="url(#linearGradient-14)">
                    <path d="M5.67087576,21.64332 L0.50030303,12.54986 C0.0957075758,11.8383 0.0957075758,10.96162 0.50030303,10.25006 L5.67087576,1.15662 C6.07547121,0.44506 6.82320758,0.00672 7.63239848,0.00672 L17.9735439,0.00672 C18.7827348,0.00672 19.5304712,0.44506 19.9350667,1.15662 L25.1056394,10.25006 C25.5102348,10.96162 25.5102348,11.8383 25.1056394,12.54986 L19.9350667,21.6433 C19.5304712,22.35486 18.7827348,22.7932 17.9735439,22.7932 L7.63239848,22.7932 C6.82320758,22.79322 6.07549091,22.35488 5.67087576,21.64332 L5.67087576,21.64332 Z" id="Shape"></path>
                </g>
                <g id="shadow" transform="translate(8.666667, 7.800000)" fill="#000000" opacity="0.07">
                    <polygon id="Shape" points="15.0147833 8.69582 7.41092576 0.97498 4.13630455 0.08512 1.19497576 1.1949 0.059169697 4.19998 0.972478788 7.5458 9.03592576 15.7333 10.7471 15.65622"></polygon>
                </g>
                <g id="art" transform="translate(8.075758, 7.200000)" fill="#FFFFFF">
                    <g id="Group">
                        <path d="M4.72721364,0.1608 C2.20409091,0.1608 0.158560606,2.23778 0.158560606,4.79998 C0.158560606,7.36192 2.20409091,9.43892 4.72721364,9.43892 C7.25033636,9.43892 9.29586667,7.36192 9.29586667,4.79998 C9.29588636,2.23778 7.25035606,0.1608 4.72721364,0.1608 M4.72721364,8.31976 C2.81266818,8.31976 1.26074394,6.74396 1.26074394,4.79996 C1.26074394,2.85596 2.81266818,1.27982 4.72721364,1.27982 C6.64175909,1.27982 8.1939,2.85596 8.1939,4.79996 C8.1939,6.74396 6.64175909,8.31976 4.72721364,8.31976" id="Shape"></path>
                        <path d="M2.55859697,4.62082 L2.55859697,6.06264 C2.76854697,6.42916 3.06581364,6.73668 3.42152121,6.95772 L3.42152121,4.62082 L2.55859697,4.62082 L2.55859697,4.62082 Z" id="Shape"></path>
                        <path d="M4.26939697,3.40526 L4.26939697,7.28744 C4.4161,7.3147 4.56617121,7.33142 4.7203,7.33142 C4.86103485,7.33142 4.99798788,7.31638 5.13255758,7.29362 L5.13255758,3.40526 L4.26939697,3.40526 L4.26939697,3.40526 Z" id="Shape"></path>
                        <path d="M6.05989091,5.22016 L6.05989091,6.93244 C6.42083788,6.69854 6.71930606,6.376 6.92305152,5.9924 L6.92305152,5.22016 L6.05989091,5.22016 L6.05989091,5.22016 Z" id="Shape"></path>
                        <path d="M8.01497273,7.65734 L7.54165455,8.13832 C7.45815909,8.22286 7.45815909,8.36096 7.54165455,8.44574 L9.33689545,10.26814 C9.42015455,10.3529 9.55639848,10.3529 9.63965758,10.26814 L10.1129758,9.78788 C10.1959788,9.70334 10.1959788,9.56502 10.1129758,9.48058 L8.31747879,7.65734 C8.23445606,7.57292 8.09799545,7.57292 8.01497273,7.65734" id="Shape"></path>
                    </g>
                </g>
            </g>
            <g id="CloudDatastore_128px-Copy" transform="translate(389.000000, 241.000000)">
                <g id="BASE" fill="url(#linearGradient-14)">
                    <path d="M6.02593953,22.5843339 L0.531627907,13.0955061 C0.1017,12.3530087 0.1017,11.4382122 0.531627907,10.6957148 L6.02593953,1.20690783 C6.45586744,0.464410435 7.25042093,0.00701217391 8.11027674,0.00701217391 L19.0989,0.00701217391 C19.9587558,0.00701217391 20.7533093,0.464410435 21.1832372,1.20690783 L26.6775488,10.6957148 C27.1074767,11.4382122 27.1074767,12.3530087 26.6775488,13.0955061 L21.1832372,22.584313 C20.7533093,23.3268104 19.9587558,23.7842087 19.0989,23.7842087 L8.11027674,23.7842087 C7.25042093,23.7842296 6.45588837,23.3268313 6.02593953,22.5843339 L6.02593953,22.5843339 Z" id="Shape"></path>
                </g>
                <g id="shadow" transform="translate(9.000000, 8.973913)" fill="#000000" opacity="0.07">
                    <polygon id="Shape" points="16.3582744 7.37609739 9.10724651 0.146086957 7.11621628 0.30432 7.12494419 1.59128348 5.66313488 0.133711304 3.7325093 0.352153043 3.72813488 1.62605217 2.24123023 0.143457391 0.100234884 2.28258783 1.43016279 3.60868174 0.13947907 3.65649391 0.109423256 5.71348174 9.36403953 14.941273 11.6292977 14.8760557"></polygon>
                </g>
                <g id="art" transform="translate(9.000000, 8.973913)" fill="#FFFFFF">
                    <g id="Group">
                        <path d="M2.06026744,0.0659478261 L0.27897907,0.0663443478 C0.139709302,0.0663443478 0.0257651163,0.180208696 0.0257651163,0.31869913 L0.0257651163,2.10162783 C0.0257651163,2.24051478 0.139960465,2.35435826 0.279209302,2.35435826 L2.06001628,2.35435826 C2.19928605,2.35435826 2.31323023,2.24049391 2.31323023,2.10162783 L2.31323023,0.31869913 C2.31323023,0.180187826 2.19953721,0.0659478261 2.06026744,0.0659478261" id="Shape"></path>
                        <path d="M5.49500233,3.48920348 L3.71369302,3.4893287 C3.57442326,3.4893287 3.4605,3.60304696 3.4605,3.74155826 L3.46075116,5.5250087 C3.46075116,5.66360348 3.57467442,5.77723826 3.71394419,5.77723826 L5.49475116,5.77723826 C5.63402093,5.77723826 5.74819535,5.66362435 5.74819535,5.5250087 L5.74844651,3.74155826 C5.74844651,3.60304696 5.63427209,3.48920348 5.49500233,3.48920348" id="Shape"></path>
                        <path d="M8.93023953,3.48920348 L7.14895116,3.4893287 C7.0096814,3.4893287 6.89598837,3.60304696 6.89598837,3.74155826 L6.89598837,5.5250087 C6.89598837,5.66360348 7.00991163,5.77723826 7.1491814,5.77723826 L8.92998837,5.77723826 C9.06925814,5.77723826 9.18343256,5.66362435 9.18343256,5.5250087 L9.18368372,3.74155826 C9.18368372,3.60304696 9.06948837,3.48920348 8.93023953,3.48920348" id="Shape"></path>
                        <path d="M2.06026744,3.48920348 L0.27897907,3.4896 C0.139709302,3.4896 0.0255139535,3.60346435 0.0255139535,3.74195478 L0.0257651163,5.52528 C0.0257651163,5.66389565 0.139960465,5.77750957 0.279209302,5.77750957 L2.06001628,5.77750957 C2.19878372,5.77750957 2.31297907,5.66391652 2.31297907,5.52528 L2.31323023,3.74182957 C2.31323023,3.60344348 2.19901395,3.48920348 2.06026744,3.48920348 L2.06026744,3.48920348 Z M1.80556744,5.26760348 L0.533197674,5.26760348 L0.533197674,3.99894261 L1.80556744,3.99894261 L1.80556744,5.26760348 L1.80556744,5.26760348 Z" id="Shape"></path>
                        <path d="M5.49523256,0.0659478261 L3.71394419,0.0663443478 C3.57467442,0.0663443478 3.46075116,0.180208696 3.46075116,0.31869913 L3.46075116,2.10202435 C3.46075116,2.24051478 3.57494651,2.35437913 3.71419535,2.35437913 L5.49500233,2.35437913 C5.634,2.35437913 5.74819535,2.24051478 5.74819535,2.10202435 L5.74819535,0.31869913 C5.74819535,0.180187826 5.63427209,0.0659478261 5.49523256,0.0659478261 L5.49523256,0.0659478261 Z M5.24053256,1.84434783 L3.96818372,1.84434783 L3.96818372,0.575937391 L5.24053256,0.575937391 L5.24053256,1.84434783 L5.24053256,1.84434783 Z" id="Shape"></path>
                        <path d="M8.9304907,0.0659478261 L7.1491814,0.0663443478 C7.0096814,0.0663443478 6.89573721,0.180208696 6.89573721,0.31869913 L6.89598837,2.10202435 C6.89598837,2.24051478 7.01018372,2.35437913 7.14943256,2.35437913 L8.92996744,2.35437913 C9.06923721,2.35437913 9.1831814,2.24051478 9.1831814,2.10202435 L9.18341163,0.31869913 C9.18341163,0.180187826 9.06923721,0.0659478261 8.9304907,0.0659478261 L8.9304907,0.0659478261 Z M8.67574884,1.84434783 L7.4034,1.84434783 L7.4034,0.575937391 L8.67574884,0.575937391 L8.67574884,1.84434783 L8.67574884,1.84434783 Z" id="Shape"></path>
                    </g>
                </g>
            </g>
            <g id="Spanner_128px" transform="translate(148.000000, 241.000000)">
                <g id="spanner">
                    <path d="M6.02593953,22.649986 L0.531627907,13.1335744 C0.101700312,12.388918 0.101700312,11.4714634 0.531627907,10.726807 L6.02593953,1.21041628 C6.45584646,0.465717937 7.2503956,0.00694828526 8.11027674,0.00692790698 L19.0988372,0.00692790698 C19.9587184,0.00694828526 20.7532675,0.465717937 21.1831744,1.21041628 L26.6775488,10.7267442 C27.1074764,11.4714006 27.1074764,12.3888552 26.6775488,13.1335116 L21.1832372,22.6499023 C20.7533303,23.3946007 19.9587811,23.8533703 19.0989,23.8533907 L8.11027674,23.8533907 C7.25041287,23.8533876 6.45586773,23.3946522 6.02593953,22.649986 L6.02593953,22.649986 Z" id="Shape" fill="url(#linearGradient-15)"></path>
                    <path d="M15.6976744,6.66732558 L14.9036233,7.88716047 L12.9767442,5.9602814 L12.5157349,7.82625349 L11.5116279,8.78847907 L13.5635023,10.8403535 L13.5923651,12.7521837 L11.7994186,13.2383721 L9.8372093,12.8782256 L7.97173953,14.6028767 L8.98714884,15.618286 L8.59964651,15.6904326 L16.7625419,23.8533488 L19.0988372,23.8533488 C19.9587184,23.8533285 20.7532675,23.3945588 21.1831744,22.6498605 L25.0254419,15.995114 L15.6976744,6.66732558 Z" id="Shape" fill="#000000" opacity="0.07"></path>
                    <polygon id="Shape" fill="#FFFFFF" points="17.6839535 13.7321163 19.2147907 14.616 19.3349302 12.9936977 17.498093 11.9331628 16.3042326 12.7075814 14.4150698 11.6166977 14.4150698 9.44288372 15.6976744 8.78839535 15.6976744 6.66732558 14.2325581 5.96030233 14.2325581 7.72786047 13.6046512 8.08137209 12.9767442 7.72786047 12.9767442 5.96030233 11.5116279 6.66732558 11.5116279 8.78839535 12.7791628 9.43513953 12.7791628 11.6166977 10.8964884 12.7036047 9.68839535 11.9199767 7.85155814 12.9805116 7.97169767 14.602814 9.50253488 13.7191395 10.1226977 14.0860465 10.1304419 14.8066744 8.59960465 15.6903488 9.9445814 16.6058372 11.7814186 15.545093 11.7077442 14.1241395 13.5971163 13.0334651 15.4795814 14.1203721 15.4050698 15.5582791 17.241907 16.618814 18.5868837 15.7035349 17.0560465 14.8198605 17.0637907 14.0992326"></polygon>
                </g>
            </g>
        </g>
    </g>
</svg>